<?xml version="1.0" encoding="UTF-8"?>
<svg id="Layer_1" xmlns="http://www.w3.org/2000/svg" version="1.1" viewBox="0 0 179.4 179.2">
  
  <defs>
    
  </defs>
  <path fill="currentColor" d="M112.1,87.1l9,9.1,9,9.1c.3.4.5.6.8.9l19.8-77.8-78,18.7,3.1,3.2,9.1,9.2,7.2,7.3-9,9-7.9,7.8c-4-3-8.2-5.5-12.6-7.9-11.7-6.1-24.8-10.4-37.7-13.6-7.8-2-15.6-3.6-23.6-4.9L0,45.1,170.9,0l7.8,7.8.7.9-47.5,170.5-12-1.4c-1.5-9.4-3.3-18.7-5.7-28-1.5-5.7-3.1-11.3-5.1-16.8s-3.6-9.8-5.9-14.5l-1.2-2.4c-2.1-4.3-4.5-8.3-7.2-12.2l-.4-.8.9-.8,9-8.9,6.9-6.8c.4.2.5.5.8.8v-.3h0Z"></path>
</svg>