<?xml version="1.0" encoding="utf-8"?>
<svg version="1.1" id="Layer_2_00000054961298599488539040000015463356717524468371_" xmlns="http://www.w3.org/2000/svg" xmlns:xlink="http://www.w3.org/1999/xlink" x="0px" y="0px" viewBox="0 0 348.2 155.1" style="enable-background:new 0 0 348.2 155.1;" xml:space="preserve">
<g>
<path fill="#000000" d="M53.5,87.5c2-0.5,3.9-1.3,5.6-2.3c3.5-2.1,6.3-5.1,8.2-8.9c2-3.8,3-8.3,3-13.4s-1-9.6-2.9-13.4s-4.7-6.8-8.2-8.9 c-3.5-2.1-7.7-3.2-12.4-3.2H9.4v85.3h16V88.4h9.7l19.2,34.3h19.5L53.5,87.5z M25.4,52.8h20c2.5,0,4.6,0.9,6.1,2.8 c1.5,1.8,2.3,4.3,2.3,7.3c0,3-0.8,5.4-2.3,7.3c-1.5,1.8-3.5,2.8-6,2.8h-20V52.8z"></path>
<path fill="#000000" d="M214.4,53.5v-16h16.1v16H214.4z M214.4,122.6V61.8h16.1v60.8H214.4z"></path>
<path fill="#000000" d="M331.8,45.4c-5.8-5.3-14.1-8-24.8-8h-28.2v85.2H307c7.5,0,13.7-1.3,18.7-3.8c5-2.6,8.7-6.1,11.2-10.7s3.8-9.9,3.8-16V68 C340.6,58.3,337.7,50.8,331.8,45.4z M324,92.6c0,4.6-1.4,8.2-4.3,10.8s-7,3.8-12.2,3.8h-12.5V52.9h12.5c5.3,0,9.4,1.3,12.2,3.8 c2.9,2.5,4.3,6.1,4.3,10.8V92.6z"></path>
</g>
<g id="Layer_1-2">
<path fill="#398bca" d="M147,18.7c0.6,4.4,1.1,8.6,1.5,13c0.3,0.7,0,1.6,0.4,2.4c0.1,1.1,0.1,2.1,0.4,3.1c0.2,2.3,1.3,4.3,1.9,6.5 c1.4-1.1,2.6-3.7,4.1-4c1.1,1.7,2,3.5,1.9,5.6c0.6,6.6,0.4,13.2,0.9,19.7c0.3,2.9,2.4,5.7,3.7,8.2c1.9,1.4,3.8,2.7,5.7,3.8 c5.7,4.1,11.7,7.8,17.4,11.8c2.3,1.2,4.2,3.1,6.5,4.4v14.6c-5.8,1.1-11.5,2.9-17.4,4.2c-4.8,1.5-10.5,2.4-15.3,4 c0.9,2.1,1.5,4.2,2.6,6.1c4,2.2,7.9,5.1,11.7,7.8c0.8,0.6,2.3,0.9,2.4,1.9c0,2.6,0,5.2,0,7.8c-0.8,0.3-1.7,0.5-2.5,0.7 c-4.2,1.1-8.6,2.1-12.8,3.3c-3,0.8-6.5,1.2-9.2,2.3h-0.2c-0.5-4.4-1.3-8.8-1.9-13.1c-0.3-1.3-0.6-2.6-0.9-3.9c-0.3-1-0.7-2-0.6-3.1 c-1.1,1.7-1.8,3.5-2.5,5.3c-7.1-0.1-6.4,1.5-9.3-5.3c-0.2,2.7-1.4,5.1-1.6,7.6c-0.8,4.2-1.2,8.3-1.9,12.5c-7.4-2.1-16-3.8-23.7-6 c-2.3-0.6-0.5-5.5-1-7.6c0-1.8,2.6-2,3.6-3.3c2.7-1.6,5.3-3.6,8-5.3c2.2-1.2,3.2-2.1,3.9-4.7c0.3-1.5,2.3-3.5-0.2-3.5 c-10.6-2.6-20.8-5.6-31.4-7.7V93.3c2.1-1,3.8-2.7,5.7-3.9c5.7-3.6,11.1-7.6,16.8-11.2c6.1-4.2,8.3-4.8,10.9-12.4 c0.4-6.8,0.5-13.6,0.9-20.5c0.1-2,0.9-3.8,1.8-5.5c1-0.8,3,3.2,4.2,3.9c1.7-4.2,2.5-8.5,2.7-13.2c0.6-3.7,0.9-7.5,1.5-11.2 c0.4-3.2,0.6-6.5,1.2-9.6c0.6-3.6,2.4-7.4,4.2-9.8c2,2.4,3.7,6.5,4.6,9.9L147,18.7L147,18.7z"></path>
</g>
</svg>